#!OML:ASF H:\LiuWeirdWalks\Patient Classification 1\Patient 1\Session 1\male.ASF
:FULLY-SPECIFIED
:DEGREES
321
root 0.794167 17.9811 -25.9426 2.974 6.43792 0.624996
lowerback 2.48067 -0.380181 -3.93334
upperback -0.0288694 -0.585641 2.46788
thorax -1.35655 -0.258387 4.78038
lowerneck -12.7835 0.0083129 1.76605
upperneck 23.4312 0.490256 -3.50723
head 9.50832 0.00355259 -1.45263
rclavicle 1.86361e-014 -3.4191e-014
rhumerus -29.6873 -25.7925 -12.9976
rradius 31.835
rwrist -5.8148
rhand -19.3328 -4.42187
rfingers 7.12502
rthumb 6.98393 -34.2867
lclavicle 1.86361e-014 -3.4191e-014
lhumerus -21.9603 18.4147 24.5937
lradius 31.0165
lwrist -0.796194
lhand -11.7596 4.63606
lfingers 7.12502
lthumb 14.2887 34.1244
rfemur -8.0909 -1.32316 14.887
rtibia 29.1891
rfoot -12.9741 -24.8083
rtoes -3.14523
lfemur -5.73909 -2.10926 -18.3759
ltibia 22.3634
lfoot -11.2696 15.5295
ltoes -9.74838
322
root 0.782993 17.9809 -25.9393 2.9859 6.48254 0.627298
lowerback 2.50766 -0.385074 -3.91265
upperback -0.00903289 -0.592549 2.45596
thorax -1.3508 -0.262572 4.75656
lowerneck -12.7771 0.025648 1.86405
upperneck 23.424 0.509048 -3.57676
head 9.5053 0.0133753 -1.49103
rclavicle -9.39258e-015 -1.35174e-014
rhumerus -29.5348 -25.8645 -12.586
rradius 31.895
rwrist -5.84921
rhand -19.3398 -4.41217
rfingers 7.12502
rthumb 6.97718 -34.2772
lclavicle -9.39258e-015 -1.35174e-014
lhumerus -21.8049 18.6179 24.0901
lradius 31.0097
lwrist -0.716051
lhand -11.9148 4.59278
lfingers 7.12502
lthumb 14.1391 34.0917
rfemur -8.11399 -1.34923 14.931
rtibia 29.2344
rfoot -12.9931 -24.8451
rtoes -3.16449
lfemur -5.74776 -2.1519 -18.3366
ltibia 22.3491
lfoot -11.2384 15.5347
ltoes -9.82021
323
root 0.771657 17.9806 -25.9363 3.00319 6.5262 0.645595
lowerback 2.52845 -0.388116 -3.90824
upperback 0.0230162 -0.597294 2.44056
thorax -1.32911 -0.266227 4.73812
lowerneck -12.7487 0.0583315 1.90493
upperneck 23.3475 0.540402 -3.56282
head 9.47405 0.0336381 -1.48835
rclavicle -1.88845e-015 -1.11319e-014
rhumerus -29.3802 -25.9894 -12.1891
rradius 31.9304
rwrist -5.83049
rhand -19.3149 -4.37909
rfingers 7.12502
rthumb 7.0012 -34.2433
lclavicle -1.88845e-015 -1.11319e-014
lhumerus -21.6338 18.8385 23.6181
lradius 30.9891
lwrist -0.631203
lhand -12.0263 4.50001
lfingers 7.12502
lthumb 14.0316 34.0064
rfemur -8.14734 -1.3781 14.9567
rtibia 29.2872
rfoot -13.0125 -24.8813
rtoes -3.18296
lfemur -5.76448 -2.18651 -18.3151
ltibia 22.337
lfoot -11.2 15.537
ltoes -9.90394
324
root 0.760193 17.9804 -25.9333 3.02513 6.57225 0.668493
lowerback 2.54352 -0.396189 -3.91156
upperback 0.0661484 -0.608704 2.43048
thorax -1.29193 -0.273771 4.72971
lowerneck -12.6692 0.0977242 1.88654
upperneck 23.1686 0.578751 -3.4919
head 9.39733 0.0589304 -1.45367
rclavicle 5.06901e-015 -1.11319e-014
rhumerus -29.1988 -26.1353 -11.8242
rradius 31.9518
rwrist -5.81742
rhand -19.3345 -4.38208
rfingers 7.12502
rthumb 6.98226 -34.2469
lclavicle 5.06901e-015 -1.11319e-014
lhumerus -21.4707 19.0627 23.179
lradius 30.9765
lwrist -0.517791
lhand -12.1218 4.48443
lfingers 7.12502
lthumb 13.9397 33.9972
rfemur -8.18602 -1.40939 14.9771
rtibia 29.3454
rfoot -13.0506 -24.9137
rtoes -3.18337
lfemur -5.78549 -2.20844 -18.2983
ltibia 22.3289
lfoot -11.164 15.528
ltoes -9.99532
325
root 0.748691 17.9802 -25.9305 3.04966 6.62763 0.694078
lowerback 2.55087 -0.40871 -3.91442
upperback 0.110523 -0.625793 2.41975
thorax -1.24852 -0.284345 4.72043
lowerneck -12.6521 0.132244 1.84784
upperneck 23.0569 0.612304 -3.40587
head 9.35585 0.0811207 -1.41211
rclavicle 2.93207e-015 -4.77083e-014
rhumerus -29.0201 -26.2821 -11.4814
rradius 31.9598
rwrist -5.77491
rhand -19.347 -4.38114
rfingers 7.12502
rthumb 6.97022 -34.2464
lclavicle 2.93207e-015 -4.77083e-014
lhumerus -21.3123 19.2593 22.7698
lradius 30.9765
lwrist -0.413914
lhand -12.1822 4.55107
lfingers 7.12502
lthumb 13.8814 34.0678
rfemur -8.22701 -1.46137 14.9932
rtibia 29.405
rfoot -13.0849 -24.9374
rtoes -3.1966
lfemur -5.81228 -2.228 -18.284
ltibia 22.3244
lfoot -11.1276 15.5125
ltoes -10.0876
326
root 0.737057 17.9802 -25.9279 3.08063 6.6976 0.726243
lowerback 2.5545 -0.423518 -3.92301
upperback 0.143809 -0.646037 2.40623
thorax -1.21408 -0.296021 4.71166
lowerneck -12.6333 0.158782 1.86944
upperneck 22.9815 0.640441 -3.39576
head 9.32687 0.097636 -1.40808
rclavicle 9.54166e-015 -1.90833e-014
rhumerus -28.8624 -26.4174 -11.1521
rradius 31.9634
rwrist -5.72537
rhand -19.358 -4.37946
rfingers 7.12502
rthumb 6.9596 -34.245
lclavicle 9.54166e-015 -1.90833e-014
lhumerus -21.1518 19.4192 22.3936
lradius 30.9854
lwrist -0.297309
lhand -12.2565 4.70889
lfingers 7.12502
lthumb 13.8098 34.2305
rfemur -8.27122 -1.53631 15.0015
rtibia 29.4616
rfoot -13.1157 -24.9529
rtoes -3.21721
lfemur -5.84932 -2.24758 -18.2748
ltibia 22.3236
lfoot -11.0928 15.4838
ltoes -10.1695
327
root 0.725086 17.9804 -25.9252 3.10701 6.76905 0.744825
lowerback 2.566 -0.43611 -3.92151
upperback 0.165708 -0.663234 2.39713
thorax -1.19618 -0.305559 4.70185
lowerneck -12.5989 0.158328 1.91797
upperneck 22.9409 0.640523 -3.44641
head 9.30637 0.0968011 -1.43317
rclavicle -7.45443e-016 3.18055e-015
rhumerus -28.7304 -26.4949 -10.8394
rradius 31.9743
rwrist -5.6997
rhand -19.4018 -4.40633
rfingers 7.12502
rthumb 6.9173 -34.2733
lclavicle -7.45443e-016 3.18055e-015
lhumerus -20.9953 19.5448 22.0456
lradius 30.9994
lwrist -0.196122
lhand -12.3245 4.93087
lfingers 7.12502
lthumb 13.7443 34.4569
rfemur -8.30856 -1.60244 15.0274
rtibia 29.5131
rfoot -13.149 -24.9748
rtoes -3.23495
lfemur -5.88383 -2.26615 -18.2487
ltibia 22.3249
lfoot -11.0615 15.4539
ltoes -10.2372
